<?xml version="1.0" encoding="UTF-8" standalone="no"?>
<!-- Created with Inkscape (http://www.inkscape.org/) -->

<svg
   width="120"
   height="120"
   viewBox="0 0 31.750003 31.750003"
   version="1.1"
   id="svg1"
   xmlns="http://www.w3.org/2000/svg"
   xmlns:svg="http://www.w3.org/2000/svg">
  <defs
     id="defs1" />
  <g
     id="layer1">
    <circle
       style="fill:#00a9ff;fill-opacity:1;fill-rule:evenodd;stroke:none;stroke-width:0.26496;stroke-dasharray:none;stroke-opacity:1"
       id="path11"
       cx="15.957904"
       cy="15.791661"
       transform="rotate(0.30000034)"
       r="15.875" />
    <ellipse
       style="font-variation-settings:normal;opacity:1;fill:none;fill-opacity:0;fill-rule:evenodd;stroke:#ffffff;stroke-width:0.8;stroke-linecap:butt;stroke-linejoin:miter;stroke-miterlimit:4;stroke-dasharray:none;stroke-dashoffset:0;stroke-opacity:1;stop-color:#000000;stop-opacity:1"
       id="path15"
       cx="15.977769"
       cy="15.766161"
       rx="12.964363"
       ry="13.110522"
       transform="matrix(0.99998613,0.00526654,-0.00520557,0.99998645,0,0)" />
    <ellipse
       style="fill:none;fill-opacity:0;fill-rule:evenodd;stroke:#ffffff;stroke-width:0.979904;stroke-dasharray:none;stroke-opacity:1"
       id="path15-4"
       cx="15.978293"
       cy="15.76669"
       rx="14.556964"
       ry="14.628578"
       transform="matrix(0.99998631,0.00523345,-0.00523849,0.99998628,0,0)" />
    <path
       style="fill:none;fill-opacity:0;fill-rule:evenodd;stroke:#ffffff;stroke-width:1.3168;stroke-linejoin:round;stroke-dasharray:none;stroke-opacity:1"
       id="path17"
       d="m 110.49925,56.71838 -2.59799,-4.499857 -2.598,-4.499857 5.19599,0 5.19599,0 -2.59799,4.499857 z"
       transform="matrix(0.86862739,-0.00151604,0.00136546,0.78234909,-80.09006,-31.491529)" />
    <path
       style="fill:none;fill-opacity:0;fill-rule:evenodd;stroke:#ffffff;stroke-width:1.55692;stroke-linejoin:round;stroke-dasharray:none;stroke-opacity:1"
       id="path18"
       d="m 120.19938,62.270101 2.79084,-5.28032 2.79085,-5.280321 3.17747,5.057101 3.17747,5.057101 -5.96832,0.223219 z"
       transform="matrix(0.69670897,0.02676485,-0.02676485,0.69670897,-63.503825,-32.361592)" />
    <path
       style="fill:none;fill-opacity:0;fill-rule:evenodd;stroke:#ffffff;stroke-width:1.55692;stroke-linecap:round;stroke-linejoin:round;stroke-dasharray:none;stroke-opacity:1"
       id="path18-2"
       d="m 120.19938,62.270101 2.79084,-5.28032 2.79085,-5.280321 3.17747,5.057101 3.17747,5.057101 -5.96832,0.223219 z"
       transform="matrix(0.69683956,0.02311654,-0.02311654,0.69683956,-77.216235,-31.979938)" />
    <path
       style="fill:none;fill-opacity:0;fill-rule:evenodd;stroke:#ffffff;stroke-width:1.3168;stroke-linejoin:round;stroke-dasharray:none;stroke-opacity:1"
       id="path17-7"
       d="m 110.49925,56.71838 -2.59799,-4.499857 -2.598,-4.499857 5.19599,0 5.19599,0 -2.59799,4.499857 z"
       transform="matrix(-0.86862739,0.00151604,-0.00136546,-0.78234909,112.10942,63.144435)" />
    <path
       style="fill:none;fill-opacity:0;fill-rule:evenodd;stroke:#ffffff;stroke-width:1.55692;stroke-linejoin:round;stroke-dasharray:none;stroke-opacity:1"
       id="path18-9"
       d="m 120.19938,62.270101 2.79084,-5.28032 2.79085,-5.280321 3.17747,5.057101 3.17747,5.057101 -5.96832,0.223219 z"
       transform="matrix(-0.69670897,-0.02676485,0.02676485,-0.69670897,95.523201,64.014495)" />
    <path
       style="fill:none;fill-opacity:0;fill-rule:evenodd;stroke:#ffffff;stroke-width:1.55692;stroke-linejoin:round;stroke-dasharray:none;stroke-opacity:1"
       id="path18-2-5"
       d="m 120.19938,62.270101 2.79084,-5.28032 2.79085,-5.280321 3.17747,5.057101 3.17747,5.057101 -5.96832,0.223219 z"
       transform="matrix(-0.69683956,-0.02311654,0.02311654,-0.69683956,109.23559,63.632845)" />
    <circle
       style="fill:#00a9ff;fill-opacity:0;fill-rule:evenodd;stroke:#ffffff;stroke-width:1.1;stroke-dasharray:none;stroke-opacity:1"
       id="path19"
       cx="16.057478"
       cy="15.78213"
       r="1.8861897" />
    <circle
       style="fill:#ffffff;fill-opacity:1;fill-rule:evenodd;stroke:none;stroke-width:0.462432;stroke-linecap:round;stroke-linejoin:round;stroke-miterlimit:4;stroke-dasharray:none;stroke-opacity:1"
       id="path19-3-4"
       cx="14.451271"
       cy="18.661608"
       r="0.7606771" />
    <circle
       style="fill:#ffffff;fill-opacity:1;fill-rule:evenodd;stroke:none;stroke-width:0.462433;stroke-linecap:round;stroke-linejoin:round;stroke-miterlimit:4;stroke-dasharray:none;stroke-opacity:1"
       id="path19-3-4-1"
       cx="17.609587"
       cy="18.672312"
       r="0.7606771" />
    <circle
       style="fill:#ffffff;fill-opacity:1;fill-rule:evenodd;stroke:none;stroke-width:0.462432;stroke-linecap:round;stroke-linejoin:round;stroke-miterlimit:4;stroke-dasharray:none;stroke-opacity:1"
       id="path19-3-4-1-3"
       cx="19.420233"
       cy="15.902843"
       r="0.7606771" />
    <circle
       style="fill:#ffffff;fill-opacity:1;fill-rule:evenodd;stroke:none;stroke-width:0.462432;stroke-linecap:round;stroke-linejoin:round;stroke-miterlimit:4;stroke-dasharray:none;stroke-opacity:1"
       id="path19-3-4-1-9"
       cx="17.615362"
       cy="12.905894"
       r="0.7606771" />
    <circle
       style="fill:#ffffff;fill-opacity:1;fill-rule:evenodd;stroke:none;stroke-width:0.191892;stroke-linecap:round;stroke-linejoin:round;stroke-miterlimit:4;stroke-dasharray:none;stroke-opacity:1"
       id="path19-3-4-1-8"
       cx="14.35376"
       cy="12.961917"
       r="0.7606771" />
    <circle
       style="fill:#ffffff;fill-opacity:1;fill-rule:evenodd;stroke:none;stroke-width:0.462432;stroke-linecap:round;stroke-linejoin:round;stroke-miterlimit:4;stroke-dasharray:none;stroke-opacity:1"
       id="path19-3-4-1-36"
       cx="12.785508"
       cy="15.784785"
       r="0.7606771" />
  </g>
</svg>
